<?xml version="1.0" standalone="no"?><!DOCTYPE svg PUBLIC "-//W3C//DTD SVG 1.1//EN" "http://www.w3.org/Graphics/SVG/1.1/DTD/svg11.dtd"><svg t="1496973242670" class="icon" style="" viewBox="0 0 1024 1024" version="1.1" xmlns="http://www.w3.org/2000/svg" p-id="2698" xmlns:xlink="http://www.w3.org/1999/xlink" width="16" height="16"><defs><style type="text/css"></style></defs><path d="M884.626207 282.354739H522.008446c-39.397289 0-90.036619-26.462698-112.532982-58.806337l-24.709775-35.527144c-22.49534-32.343639-73.135694-58.806337-112.532983-58.806338H138.004609c-39.397289 0-71.631434 32.234145-71.631434 71.631434v9.875928c0 39.397289-0.037862 71.631434-0.083911 71.631434s-0.083911 32.234145-0.083911 71.631434v463.286532c0 39.397289 32.234145 71.631434 71.631434 71.631434h746.787374c39.397289 0 71.631434-32.234145 71.631434-71.631434V353.986173c0.002047-39.397289-32.232099-71.631434-71.629388-71.631434z m-555.645032 295.672047l-38.390356-67.028603c-2.629897-4.591575-3.313465-9.93221-1.926885-15.037484s4.679579-9.366322 9.271154-11.996219a19.818371 19.818371 0 0 1 9.829879-2.622734c7.089465 0 13.681604 3.817955 17.203824 9.965979l14.405082 25.151843c13.433964-32.118512 35.489282-59.510372 64.180741-79.593779 31.100322-21.768793 67.61598-33.274848 105.59906-33.274848 78.728062 0 148.730393 50.024324 174.192297 124.47906 3.533476 10.335393-1.99954 21.618367-12.334932 25.153889a19.784602 19.784602 0 0 1-6.408967 1.069355 19.809161 19.809161 0 0 1-18.742877-13.403264c-19.980054-58.426691-74.918293-97.682763-136.705521-97.682763-56.488549 0-107.812471 33.288151-131.202181 83.944877l25.403576-14.549368a19.817348 19.817348 0 0 1 9.82988-2.62171 19.868513 19.868513 0 0 1 17.203823 9.964956c5.427616 9.479909 2.13257 21.606087-7.344268 27.033703l-67.028603 38.390355a19.804045 19.804045 0 0 1-9.829879 2.623757 19.87363 19.87363 0 0 1-17.204847-9.967002z m395.546731 111.109564a19.828604 19.828604 0 0 1-9.828856 2.62171 19.872606 19.872606 0 0 1-17.204847-9.964956l-16.334014-28.51852c-27.108405 71.101361-95.431489 118.433366-172.006515 118.433366-78.774111 0-148.788721-50.062186-174.221974-124.57218a19.686365 19.686365 0 0 1 0.964978-15.130606 19.672038 19.672038 0 0 1 11.382235-10.016121 19.777439 19.777439 0 0 1 6.399757-1.066285c8.472975 0 16.005532 5.390777 18.744923 13.413498 19.957541 58.470693 74.90499 97.754395 136.729058 97.754395 56.366775 0 107.639532-33.184797 131.083477-83.692121l-21.12718 12.100596a19.821441 19.821441 0 0 1-9.829879 2.622733 19.869536 19.869536 0 0 1-17.204847-9.964955c-5.426593-9.479909-2.131547-21.60711 7.344268-27.034727l67.029626-38.389332a19.814278 19.814278 0 0 1 9.830903-2.622734c7.090489 0 13.681604 3.817955 17.203824 9.965979l38.390355 67.02758c5.427616 9.477862 2.131547 21.605064-7.345292 27.03268z" fill="#1296db" p-id="2699"></path></svg>