<?xml version="1.0" standalone="no"?><!DOCTYPE svg PUBLIC "-//W3C//DTD SVG 1.1//EN" "http://www.w3.org/Graphics/SVG/1.1/DTD/svg11.dtd"><svg t="1496973337968" class="icon" style="" viewBox="0 0 1024 1024" version="1.1" xmlns="http://www.w3.org/2000/svg" p-id="3364" xmlns:xlink="http://www.w3.org/1999/xlink" width="16" height="16"><defs><style type="text/css"></style></defs><path d="M871.424 535.552L547.84 686.592c-30.72 13.824-43.52 13.824-71.68 0l-323.584-151.04c-17.408-9.216-22.016-44.544-22.016-63.488 21.504 12.8 51.712 27.136 50.688 26.112l330.24 147.968 330.24-147.968c0.512 0 30.208-15.36 50.688-26.112 1.024 19.456-5.12 55.808-20.992 63.488z" fill="#26A8BB" p-id="3365"></path><path d="M871.424 684.544L547.84 835.072c-30.72 13.824-43.52 13.824-71.68 0l-323.584-151.04c-17.408-9.216-22.016-44.544-22.016-63.488 21.504 12.8 51.712 27.136 50.688 26.112l330.24 147.968 330.24-147.968c0.512 0 30.208-15.36 50.688-26.112 1.024 19.968-5.12 55.808-20.992 64zM871.424 409.088L547.84 541.696c-30.72 12.288-43.52 12.288-71.68 0L152.576 409.088c-25.6-12.288-24.576-50.688 0-65.536L476.16 188.416c28.672-12.8 46.592-13.824 71.68 0l323.584 155.648c24.576 12.288 23.552 55.296 0 65.024z" fill="#26A8BB" p-id="3366"></path><path d="M512 214.528L181.76 376.32 512 503.296l330.24-126.976L512 214.528z" fill="#FFFFFF" p-id="3367"></path></svg>