<?xml version="1.0" standalone="no"?><!DOCTYPE svg PUBLIC "-//W3C//DTD SVG 1.1//EN" "http://www.w3.org/Graphics/SVG/1.1/DTD/svg11.dtd"><svg t="1493357693359" class="icon" style="" viewBox="0 0 1024 1024" version="1.1" xmlns="http://www.w3.org/2000/svg" p-id="20691" xmlns:xlink="http://www.w3.org/1999/xlink" width="48" height="48"><defs><style type="text/css"></style></defs><path d="M863.31392 941.3632c0 13.63968-75.79648 24.6784-169.24672 24.6784-93.47072 0-169.28768-11.03872-169.28768-24.6784 0-4.75136 9.44128-9.19552 25.47712-12.96384-2.048-1.55648-4.15744-3.072-6.12352-4.7104-10.6496-0.08192-21.31968-0.12288-32.1536-0.12288-254.07488 0-460.0832 22.44608-460.0832 50.19648C51.9168 1001.472 257.92512 1024 512 1024s460.04224-22.528 460.04224-50.23744c0-12.36992-40.96-23.63392-108.72832-32.39936z" fill="#B7CED2" p-id="20692"></path><path d="M189.11232 226.2016l9.29792 594.1248 123.94496 145.34656h234.92608l-23.04-29.63456 165.04832-271.36 37.62176 38.8096v-179.56864L634.88 438.72256 546.52928 193.8432l-181.248 5.632" fill="#A2E7F6" p-id="20693"></path><path d="M428.99456 336.91648a113.74592 112.96768 0 1 0 227.49184 0 113.74592 112.96768 0 1 0-227.49184 0Z" fill="#A2E7F6" p-id="20694"></path><path d="M721.12128 539.48416a18.08384 18.08384 0 0 1-13.12768-5.48864l-86.40512-87.59296a133.7344 133.7344 0 0 1-75.07968 22.99904c-74.9568 0-135.8848-61.8496-135.8848-137.80992s60.928-137.76896 135.8848-137.76896c75.07968 0 135.96672 61.80864 135.96672 137.76896 0 32.95232-11.63264 64.7168-32.8704 89.68192l84.72576 85.9136a19.06688 19.06688 0 0 1 0 26.76736 18.28864 18.28864 0 0 1-13.2096 5.5296z m-174.592-305.31584c-54.31296 0-98.54976 44.87168-98.54976 99.92192 0 55.11168 44.2368 99.92192 98.54976 99.92192 54.39488 0 98.59072-44.81024 98.59072-99.92192 0-55.05024-44.19584-99.92192-98.59072-99.92192zM709.44768 850.432c0 19.23072-0.24576 38.52288 0.08192 57.7536 0.16384 8.43776-8.6016 11.48928-14.27456 8.47872a8.15104 8.15104 0 0 1-4.608-6.79936c-0.04096-0.63488-0.04096-1.26976-0.04096-1.92512 0-38.44096 0.08192-76.84096-0.08192-115.24096-0.04096-8.192 7.72096-11.48928 13.7216-8.92928 3.72736 1.59744 5.24288 4.56704 5.24288 8.6016-0.08192 19.39456-0.04096 38.7072-0.04096 58.0608zM709.71392 754.44224a9.728 9.728 0 0 1-9.40032 9.728 9.6256 9.6256 0 0 1-0.2048-19.27168 9.70752 9.70752 0 0 1 9.60512 9.54368z" fill="#107792" p-id="20695"></path><path d="M524.8 935.99744c3.11296-14.848 12.32896-26.76736 19.59936-39.5264 42.20928-74.11712 84.6848-148.11136 127.03744-222.16704 3.95264-7.00416 8.92928-12.96384 16.44544-16.32256 2.39616-1.08544 4.99712-1.72032 7.51616-2.60096h7.76192c7.08608 1.67936 13.35296 4.83328 18.08384 10.52672 2.12992 2.56 4.03456 5.3248 5.71392 8.192 22.48704 39.19872 44.91264 78.39744 67.2768 117.71904 1.20832 2.12992 2.048 4.83328 1.92512 7.2704-0.2048 4.36224-3.2768 7.2704-7.43424 8.11008a9.09312 9.09312 0 0 1-10.0352-4.75136c-5.20192-8.97024-10.36288-17.96096-15.48288-26.91072-17.63328-30.84288-35.20512-61.6448-52.92032-92.40576a30.72 30.72 0 0 0-5.67296-7.08608c-3.2768-2.9696-7.2704-2.99008-10.60864-0.04096a31.37536 31.37536 0 0 0-6.00064 7.51616c-21.36064 37.15072-42.63936 74.40384-63.95904 111.63648-25.51808 44.60544-51.03616 89.1904-76.51328 133.8368a37.888 37.888 0 0 0-3.56352 8.64256c-1.24928 4.48512 0.59392 8.00768 5.03808 9.44128 3.11296 1.00352 6.51264 1.47456 9.80992 1.55648 9.44128 0.2048 18.88256 0.08192 28.32384 0.08192 83.80416 0 167.60832 0 251.35104-0.04096 3.39968 0 6.92224-0.36864 10.15808-1.20832 5.24288-1.39264 7.24992-5.16096 5.75488-10.4448a34.7136 34.7136 0 0 0-3.15392-7.63904c-8.84736-15.60576-17.75616-31.15008-26.7264-46.71488-1.47456-2.56-2.39616-5.20192-1.67936-8.192 0.9216-3.87072 4.15744-6.84032 8.192-7.24992s7.20896 1.35168 9.23648 4.87424c7.35232 12.8 14.72512 25.68192 22.03648 38.52288 2.64192 4.68992 5.48864 9.23648 7.72096 14.09024 1.6384 3.56352 2.51904 7.4752 3.72736 11.24352v8.35584c-0.16384 0.2048-0.4096 0.4096-0.47104 0.59392-2.27328 11.28448-9.40032 17.96096-20.15232 21.07392-2.1504 0.67584-4.4032 1.1264-6.59456 1.6384H552.05888c-0.32768-0.16384-0.63488-0.4096-0.96256-0.43008-13.47584-2.08896-22.95808-8.76544-26.03008-22.71232-0.04096-0.08192-0.16384-0.12288-0.24576-0.16384l-0.02048-8.31488zM622.44864 678.87104H285.24544c-15.36 0-27.7504 9.15456-27.7504 20.48v8.15104c0 11.32544 12.36992 20.52096 27.7504 20.52096H592.6912l29.75744-49.152z" fill="#107792" p-id="20696"></path><path d="M453.55008 929.19808h-114.23744V815.7184a18.30912 18.30912 0 0 0-18.20672-18.24768h-114.23744V233.92256h143.27808c0.59392 0.04096 1.24928 0.04096 1.88416 0.04096h13.80352c9.99424 0 18.00192-8.192 18.00192-18.28864s-8.00768-18.35008-18.00192-18.35008h-13.80352c-0.16384 0-0.32768 0.08192-0.43008 0.08192v-0.08192H188.80512c-9.8304 0-18.08384 8.192-18.08384 18.35008v600.00256a18.24768 18.24768 0 0 0 5.69344 13.18912l132.1984 131.56352c3.6864 3.6864 8.72448 5.55008 13.76256 5.24288h121.71264c-1.80224-17.67424 9.46176-36.47488 9.46176-36.47488z m-150.4256-25.3952l-70.08256-69.8368h70.08256v69.8368z" fill="#107792" p-id="20697"></path><path d="M369.95072 462.88896c-44.40064 0-80.52736 36.08576-80.52736 80.4864s36.12672 80.4864 80.52736 80.4864c44.35968 0 80.4864-36.08576 80.4864-80.4864s-36.12672-80.4864-80.4864-80.4864z m0 152.30976a71.92576 71.92576 0 0 1-71.8848-71.84384 71.94624 71.94624 0 0 1 71.8848-71.84384 71.92576 71.92576 0 0 1 71.84384 71.84384 71.90528 71.90528 0 0 1-71.84384 71.84384z m19.49696-113.90976l-12.8 23.552a131.97312 131.97312 0 0 0-6.2464 12.67712h-0.24576c-2.23232-5.12-8.6016-17.2032-19.00544-36.2496h-12.0832l22.40512 38.4h-18.3296v8.43776h21.48352v11.71456h-21.48352v8.56064h21.48352v17.03936h10.6496v-17.03936h20.76672v-8.56064h-20.76672v-11.71456h20.76672v-8.43776h-17.83808l22.60992-38.4h-11.3664z" fill="#107792" p-id="20698"></path><path d="M369.95072 439.6032c-57.2416 0-103.79264 46.51008-103.79264 103.75168S312.7296 647.168 369.95072 647.168c57.20064 0 103.79264-46.55104 103.79264-103.79264s-46.592-103.77216-103.79264-103.77216z m0 196.4032a92.71296 92.71296 0 0 1-92.672-92.63104 92.75392 92.75392 0 0 1 92.672-92.63104 92.73344 92.73344 0 0 1 92.63104 92.63104 92.69248 92.69248 0 0 1-92.63104 92.63104zM646.88128 631.1936s30.72-49.68448 60.928-60.64128H502.8864s-4.83328 30.3104-29.12256 60.64128h173.11744z" fill="#107792" p-id="20699"></path></svg>