<?xml version="1.0" standalone="no"?><!DOCTYPE svg PUBLIC "-//W3C//DTD SVG 1.1//EN" "http://www.w3.org/Graphics/SVG/1.1/DTD/svg11.dtd"><svg t="1496973083043" class="icon" style="" viewBox="0 0 1024 1024" version="1.1" xmlns="http://www.w3.org/2000/svg" p-id="1315" xmlns:xlink="http://www.w3.org/1999/xlink" width="16" height="16"><defs><style type="text/css"></style></defs><path d="M836.855172 0v217.158621h132.413794zM459.034483 278.951724c10.593103 0 19.42069-1.765517 28.248276-5.296552-8.827586-5.296552-17.655172-10.593103-28.248276-12.35862l7.062069-21.186207c15.889655 5.296552 30.013793 10.593103 40.606896 21.186207 15.889655-15.889655 24.717241-38.841379 24.717242-68.855173 0-17.655172-3.531034-31.77931-8.827587-45.903448-5.296552-12.358621-14.124138-22.951724-26.482758-30.013793-10.593103-7.062069-22.951724-10.593103-37.075862-10.593104-21.186207 0-38.841379 7.062069-52.965517 21.186207-14.124138 14.124138-21.186207 35.310345-21.186207 65.324138 0 28.248276 7.062069 49.434483 21.186207 63.558621 14.124138 15.889655 31.77931 22.951724 52.965517 22.951724z" fill="#1296db" p-id="1316"></path><path d="M969.268966 296.606897V247.172414h-167.724138V0H54.731034v1024H971.034483l-1.765517-727.393103z m-358.4-211.862069h28.248275v188.910344h105.931035V300.137931h-134.17931V84.744828zM368.993103 134.17931c8.827586-17.655172 21.186207-30.013793 37.075863-38.841379 15.889655-8.827586 33.544828-14.124138 52.965517-14.124138s37.075862 5.296552 52.965517 14.124138c15.889655 8.827586 28.248276 22.951724 37.075862 38.841379 8.827586 17.655172 12.358621 35.310345 12.358621 58.262069 0 17.655172-3.531034 33.544828-8.827586 47.668966-5.296552 14.124138-14.124138 26.482759-24.717242 37.075862 12.358621 8.827586 24.717241 15.889655 37.075862 19.42069l-8.827586 19.420689c-15.889655-5.296552-30.013793-14.124138-45.903448-26.482758-15.889655 8.827586-33.544828 14.124138-52.965517 14.124138s-37.075862-5.296552-52.965518-14.124138-28.248276-22.951724-37.075862-38.84138c-8.827586-17.655172-12.358621-35.310345-12.35862-58.262069 1.765517-21.186207 5.296552-40.606897 14.124137-58.262069zM282.482759 224.22069c-3.531034-5.296552-10.593103-8.827586-19.42069-12.358621-5.296552-1.765517-17.655172-5.296552-38.841379-10.593103-19.42069-5.296552-33.544828-8.827586-40.606897-14.124138-10.593103-5.296552-17.655172-12.358621-22.951724-19.42069-5.296552-8.827586-8.827586-17.655172-8.827586-26.482759 0-10.593103 3.531034-21.186207 8.827586-30.013793 7.062069-10.593103 15.889655-17.655172 28.248276-22.951724s24.717241-7.062069 38.841379-7.062069c15.889655 0 30.013793 1.765517 42.372414 7.062069 12.358621 5.296552 21.186207 12.358621 28.248276 22.951724s10.593103 21.186207 10.593103 33.544828l-26.482758 3.531034c-1.765517-14.124138-7.062069-24.717241-14.124138-30.013793-10.593103-8.827586-22.951724-12.358621-38.84138-12.358621-17.655172 0-30.013793 3.531034-37.075862 10.593104-8.827586 5.296552-12.358621 14.124138-12.35862 22.951724 0 7.062069 3.531034 14.124138 8.827586 19.42069 5.296552 3.531034 19.42069 8.827586 42.372414 14.124138 22.951724 5.296552 38.841379 10.593103 47.668965 14.124138 12.358621 5.296552 21.186207 12.358621 28.248276 21.186206 5.296552 8.827586 8.827586 19.42069 8.827586 30.013794 0 10.593103-3.531034 22.951724-10.593103 31.77931-7.062069 10.593103-15.889655 17.655172-28.248276 22.951724-12.358621 5.296552-26.482759 8.827586-40.606897 8.827586-19.42069 0-35.310345-3.531034-49.434482-8.827586-12.358621-5.296552-22.951724-14.124138-31.779311-24.717241-7.062069-10.593103-10.593103-24.717241-12.35862-38.84138l26.482758-1.765517c1.765517 10.593103 3.531034 19.42069 8.827586 26.482759 5.296552 7.062069 12.358621 12.358621 21.186207 15.889655 10.593103 3.531034 21.186207 7.062069 33.544828 7.062069 10.593103 0 21.186207-1.765517 28.248276-5.296552s14.124138-7.062069 17.655172-14.124138c3.531034-5.296552 5.296552-12.358621 5.296552-17.655172 3.531034-5.296552 1.765517-10.593103-1.765517-15.889655z m669.131034 780.35862H72.386207V388.413793h879.227586v616.165517z" fill="#1296db" p-id="1317"></path><path d="M446.675862 768l-88.275862-88.275862 88.275862-88.275862h-68.855172l-82.979311 86.510345 82.979311 90.041379zM577.324138 768h68.855172l84.744828-90.041379-84.744828-86.510345h-68.855172l88.275862 88.275862z" fill="#1296db" p-id="1318"></path></svg>