<?xml version="1.0" standalone="no"?><!DOCTYPE svg PUBLIC "-//W3C//DTD SVG 1.1//EN" "http://www.w3.org/Graphics/SVG/1.1/DTD/svg11.dtd"><svg t="1493358203004" class="icon" style="" viewBox="0 0 1024 1024" version="1.1" xmlns="http://www.w3.org/2000/svg" p-id="9384" xmlns:xlink="http://www.w3.org/1999/xlink" width="48" height="48"><defs><style type="text/css"></style></defs><path d="M512.006192 0.006192C229.232785 0.006192 0 229.21421 0 512.012383c0 282.748641 229.232785 511.981425 512.006192 511.981425 282.761024 0 511.993808-229.232785 511.993808-511.981425C1024 229.21421 794.767215 0.006192 512.006192 0.006192z" fill="#56B48C" p-id="9385"></path><path d="M575.335695 300.124267c-6.451622-8.261626-15.016636-12.395535-25.697104-12.395535-9.475175 0-15.924734 1.814132-19.348675 5.442395-3.430133 3.628264-10.785726 13.301569-22.068841 29.024045a247.720831 247.720831 0 0 1-38.848012 42.626937c-14.616247 12.696859-34.115584 24.791071-58.500075 36.278508-16.325122 7.661043-27.715558 13.90628-34.163053 18.743965-6.451622 4.837685-9.67537 12.395535-9.675369 22.673551 0 8.870465 3.27328 16.680106 9.826031 23.430988 6.54656 6.755009 14.059005 10.127355 22.52289 10.127355 17.732674 0 52.199114-19.649999 103.395192-58.95206V692.238843c0 16.126992 3.727329 28.320269 11.186114 36.581896 7.454658 8.261626 17.330221 12.395535 29.626692 12.395535 27.610302 0 41.417516-20.254709 41.417516-60.766192V334.28732c0.002064-14.51099-3.223747-25.895235-9.673306-34.163053z" fill="#FFFFFF" p-id="9386"></path></svg>